<?xml version="1.0" encoding="utf-8"?>
<?xml-stylesheet type="text/xsl" href="rss1.xsl"?>
<rss version="2.0" xmlns:atom="http://www.w3.org/2005/Atom" xmlns:content="http://purl.org/rss/1.0/modules/content/" xmlns:dc="http://purl.org/dc/elements/1.1/" xmlns:media="http://search.yahoo.com/mrss/">
<channel>
 <title>Getty</title>
 <link>http://www.gettyimg.com/</link>
 <atom:link href="http://www.gettyimg.com/" rel="self" type="application/rss+xml" />

 
                <item>
                <title><![CDATA[【PRORES HD】Taylor Swift - willow MASTER ProRes 1080p LPCM2.0.]]></title>
                <link><![CDATA[https://sharemania.us/threads/taylor-swift-willow-master-prores-1080p-lpcm2-0.233200/]]></link>
                <description><![CDATA[<article>
<blockquote class="messageText SelectQuoteContainer ugc baseHtml">
<img src="https://pbs.twimg.com/media/FWLaW3FaAAEE62n?format=jpg&amp;name=4096x4096" class="bbCodeImage LbImage" alt="[​IMG]" data-url="https://pbs.twimg.com/media/FWLaW3FaAAEE62n?format=jpg&amp;name=4096x4096" style=""> <br>
<img src="https://i.postimg.cc/0N5RYb5t/Taylor-Swift-willow-MASTER-Pro-Res-1080p-LPCM2-0-mov.jpg" class="bbCodeImage LbImage" alt="[​IMG]" data-url="https://i.postimg.cc/0N5RYb5t/Taylor-Swift-willow-MASTER-Pro-Res-1080p-LPCM2-0-mov.jpg" style=""> <br>
<div class="ToggleTriggerAnchor bbCodeSpoilerContainer">
<button type="button" class="button bbCodeSpoilerButton ToggleTrigger Tooltip JsOnly" data-target="> .SpoilerTarget"><span>Spoiler: <span class="SpoilerTitle">Media Info</span></span></button>
<div class="SpoilerTarget bbCodeSpoilerText">General<br>
Complete name : Taylor Swift - willow MASTER ProRes 1080p LPCM2.0.mov<br>
Format : MPEG-4<br>
Format profile : QuickTime<br>
Codec ID : qt 2005.03 (qt )<br>
File size : 4.69 GiB<br>
Duration : 4 min 11 s<br>
Overall bit rate mode : Variable<br>
Overall bit rate : 160 Mb/s<br>
Frame rate : 23.976 FPS<br>
Encoded date : 2020-12-20 20:36:53 UTC<br>
Tagged date : 2020-12-10 20:37:23 UTC<br>
Writing library : Apple QuickTime<br>
TIM : 00:00:00:00<br>
TSC : 24000<br>
TSZ : 1001<br>
<br>
Video<br>
ID : 1<br>
Format : ProRes<br>
Format version : Version 0<br>
Format profile : 422 HQ<br>
Codec ID : apch<br>
Duration : 4 min 11 s<br>
Bit rate mode : Variable<br>
Bit rate : 159 Mb/s<br>
Width : 1 920 pixels<br>
Height : 1 080 pixels<br>
Display aspect ratio : 16:9<br>
Frame rate mode : Constant<br>
Frame rate : 23.976 (24000/1001) FPS<br>
Color space : YUV<br>
Chroma subsampling : 4:2:2<br>
Scan type : Progressive<br>
Bits/(Pixel*Frame) : 3.188<br>
Stream size : 4.64 GiB (99%)<br>
Writing library : less<br>
Language : English<br>
Encoded date : 2020-12-20 20:36:53 UTC<br>
Tagged date : 2020-12-20 20:36:53 UTC<br>
Color primaries : BT.709<br>
Transfer characteristics : BT.709<br>
Matrix coefficients : BT.709<br>
<br>
Audio<br>
ID : 2<br>
Format : PCM<br>
Format settings : Little / Signed<br>
Codec ID : sowt<br>
Duration : 4 min 11 s<br>
Bit rate mode : Constant<br>
Bit rate : 1 536 kb/s<br>
Channel(s) : 2 channels<br>
Channel layout : L R<br>
Sampling rate : 48.0 kHz<br>
Bit depth : 16 bits<br>
Stream size : 46.0 MiB (1%)<br>
Language : English<br>
Encoded date : 2020-12-20 20:36:53 UTC<br>
Tagged date : 2020-12-20 20:36:53 UTC<br>
<br>
Other<br>
ID : 3<br>
Type : Time code<br>
Format : QuickTime TC<br>
Duration : 4 min 11 s<br>
Frame rate : 23.976 (24000/1001) FPS<br>
Time code of first frame : 00:00:00:00<br>
Time code of last frame : 00:04:11:04<br>
Time code, stripped : Yes<br>
Language : English<br>
Encoded date : 2020-12-20 20:36:53 UTC<br>
Tagged date : 2020-12-20 20:36:53 UTC</div>
</div>
<div class="bbCodeBlock bbCodeVfcHH HiddenContent">
<div class="attribution type">Hidden Content:</div>
<blockquote>You must either reply or click 'Like' to see the hidden information contained here.</blockquote>
</div>
<div class="messageTextEndMarker">&nbsp;</div>
</blockquote>
</article>]]></description>
                <author><![CDATA[szymek04sawicki]]></author>
                </item>

                
                <item>
                <title><![CDATA[【Cinema Center】SERIES - Supergirl 2015 COMPLETE [NF 1080p H264 DD+]]]></title>
                <link><![CDATA[https://sharemania.us/threads/supergirl-2015-complete-nf-1080p-h264-dd.233203/]]></link>
                <description><![CDATA[<article>
<blockquote class="messageText SelectQuoteContainer ugc baseHtml">
<b><img src="https://www.themoviedb.org/t/p/original/3iyDeJXM1H5hsjzykL9zix4Cntx.jpg" class="bbCodeImage LbImage" alt="[​IMG]" data-url="https://www.themoviedb.org/t/p/original/3iyDeJXM1H5hsjzykL9zix4Cntx.jpg" style=""> <br>
<br>
Ripped by me from Netflix.</b><br>
<br>
<b>VIDEO:</b> 1080p H264 Full HD<br>
<br>
<b>AUDIO:</b> English and Latin american <b>(EAC3 640kbps and 128kbps) 448kbps some episodes</b><br>
<br>
<b>SUBTITLES:</b> Latin American<br>
<br>
<b>EPISODES: </b>126<br>
<br>
<b>TOTAL SIZE: 166GB<br>
<br>
<b>HOST:</b> Telegram</b><br>
<br>
<div class="bbCodeBlock bbCodeVfcHH HiddenContent">
<div class="attribution type">Hidden Content:</div>
<blockquote>You must either reply or click 'Like' to see the hidden information contained here.</blockquote>
</div>
<div class="messageTextEndMarker">&nbsp;</div>
</blockquote>
</article>]]></description>
                <author><![CDATA[alrl]]></author>
                </item>

                
                <item>
                <title><![CDATA[【Singles (lossless)】FLAC - Taylor Swift - Fifteen [Amazon Music Rip FLAC]]]></title>
                <link><![CDATA[https://sharemania.us/threads/taylor-swift-fifteen-amazon-music-rip-flac.233202/]]></link>
                <description><![CDATA[<article>
<blockquote class="messageText SelectQuoteContainer ugc baseHtml">
<div style="text-align: center"><img src="https://images.genius.com/2740c06665da56768010003bdeab68cd.300x300x1.png" class="bbCodeImage LbImage" alt="[​IMG]" data-url="https://images.genius.com/2740c06665da56768010003bdeab68cd.300x300x1.png" style=""> <br>
<br>
<span style="font-family: 'Verdana'">1. Fifteen<br>
2. You Belong With Me (Radio Mix)<br>
<br>
<div class="bbCodeBlock bbCodeVfcHH HiddenContent">
<div class="attribution type">Hidden Content:</div>
<blockquote>You must reply before you can see the hidden data contained here.</blockquote>
</div></span>​</div>
<div class="messageTextEndMarker">&nbsp;</div>
</blockquote>
</article>]]></description>
                <author><![CDATA[THAT70SSHSOWOSOW]]></author>
                </item>

                
                <item>
                <title><![CDATA[【Cinema Center】SERIES - 2 Broke Girls 2011 COMPLETE [HMAX 1080p HEVC DD+]]]></title>
                <link><![CDATA[https://sharemania.us/threads/2-broke-girls-2011-complete-hmax-1080p-hevc-dd.233205/]]></link>
                <description><![CDATA[<article>
<blockquote class="messageText SelectQuoteContainer ugc baseHtml">
<img src="https://www.themoviedb.org/t/p/original/u04AvxFIDgL9JSd9xoVNK3BoBEd.jpg" class="bbCodeImage LbImage" alt="[​IMG]" data-url="https://www.themoviedb.org/t/p/original/u04AvxFIDgL9JSd9xoVNK3BoBEd.jpg" style=""> <br>
<br>
<b>Ripped by myself from HBO Max.</b><br>
<br>
<b>VIDEO:</b> 1080p H265 Full HD<br>
<br>
<b>AUDIO:</b> English and Latin american <b>(EAC3 256kbps)<br>
<br>
SUBTITLES:</b> English and Latin american<br>
<br>
<b>TOTAL SIZE: 130GB</b><br>
<br>
<b>EPISODES:</b> 138<br>
<br>
<b>HOST:</b> Telegram<br>
<br>
<div class="bbCodeBlock bbCodeVfcHH HiddenContent">
<div class="attribution type">Hidden Content:</div>
<blockquote>You must either reply or click 'Like' to see the hidden information contained here.</blockquote>
</div>
<div class="messageTextEndMarker">&nbsp;</div>
</blockquote>
</article>]]></description>
                <author><![CDATA[alrl]]></author>
                </item>

                
                <item>
                <title><![CDATA[【Helpdesk】Username Change Request]]></title>
                <link><![CDATA[https://sharemania.us/threads/username-change-request.233204/]]></link>
                <description><![CDATA[<article>
<blockquote class="messageText SelectQuoteContainer ugc baseHtml">
Can someone please change my user to taylorswift133
<div class="messageTextEndMarker">&nbsp;</div>
</blockquote>
</article>]]></description>
                <author><![CDATA[THAT70SSHSOWOSOW]]></author>
                </item>

                
                <item>
                <title><![CDATA[【Requests】[REQ AUD] - Paula Abdul - I'm Just Here For The Music]]></title>
                <link><![CDATA[https://sharemania.us/threads/paula-abdul-im-just-here-for-the-music.233207/]]></link>
                <description><![CDATA[<article>
<blockquote class="messageText SelectQuoteContainer ugc baseHtml">
Can you please have this song on flac or mp3 in high quality? Thanks a lot
<div class="messageTextEndMarker">&nbsp;</div>
</blockquote>
</article>]]></description>
                <author><![CDATA[ukpopcadelinha]]></author>
                </item>

                
                <item>
                <title><![CDATA[【PRORES HD】Taylor Swift - 22 MASTER ProRes 1080p LPCM2.0]]></title>
                <link><![CDATA[https://sharemania.us/threads/taylor-swift-22-master-prores-1080p-lpcm2-0.233201/]]></link>
                <description><![CDATA[<article>
<blockquote class="messageText SelectQuoteContainer ugc baseHtml">
<img src="https://i.pinimg.com/originals/23/51/d9/2351d9072609d3bd9e455bbdf48700ba.jpg" class="bbCodeImage LbImage" alt="[​IMG]" data-url="https://i.pinimg.com/originals/23/51/d9/2351d9072609d3bd9e455bbdf48700ba.jpg" style=""> <br>
<img src="https://i.postimg.cc/NFKQ1LDh/Taylor-Swift-22-MASTER-Pro-Res-1080p-LPCM2-0-mov.jpg" class="bbCodeImage LbImage" alt="[​IMG]" data-url="https://i.postimg.cc/NFKQ1LDh/Taylor-Swift-22-MASTER-Pro-Res-1080p-LPCM2-0-mov.jpg" style=""> <br>
<div class="ToggleTriggerAnchor bbCodeSpoilerContainer">
<button type="button" class="button bbCodeSpoilerButton ToggleTrigger Tooltip JsOnly" data-target="> .SpoilerTarget"><span>Spoiler: <span class="SpoilerTitle">Media Info</span></span></button>
<div class="SpoilerTarget bbCodeSpoilerText">General<br>
Complete name : Taylor Swift - 22 MASTER ProRes 1080p LPCM2.0.mov<br>
Format : MPEG-4<br>
Format profile : QuickTime<br>
Codec ID : qt 2005.03 (qt )<br>
File size : 4.88 GiB<br>
Duration : 4 min 8 s<br>
Overall bit rate mode : Variable<br>
Overall bit rate : 168 Mb/s<br>
Frame rate : 23.976 FPS<br>
Encoded date : 2016-12-22 11:55:02 UTC<br>
Tagged date : 2016-12-22 11:59:42 UTC<br>
Writing library : Apple QuickTime<br>
<br>
Video<br>
ID : 1<br>
Format : ProRes<br>
Format version : Version 0<br>
Format profile : 422 HQ<br>
Codec ID : apch<br>
Duration : 4 min 8 s<br>
Bit rate mode : Variable<br>
Bit rate : 166 Mb/s<br>
Width : 1 920 pixels<br>
Height : 1 080 pixels<br>
Display aspect ratio : 16:9<br>
Frame rate mode : Constant<br>
Frame rate : 23.976 (24000/1001) FPS<br>
Color space : YUV<br>
Chroma subsampling : 4:2:2<br>
Scan type : Progressive<br>
Bits/(Pixel*Frame) : 3.342<br>
Stream size : 4.81 GiB (99%)<br>
Writing library : arh0<br>
Language : English<br>
Encoded date : 2016-12-22 11:55:02 UTC<br>
Tagged date : 2016-12-22 11:59:42 UTC<br>
Color primaries : BT.709<br>
Transfer characteristics : BT.709<br>
Matrix coefficients : BT.709<br>
<br>
Audio<br>
ID : 2<br>
Format : PCM<br>
Format settings : Little / Signed<br>
Codec ID : in24<br>
Duration : 4 min 8 s<br>
Bit rate mode : Constant<br>
Bit rate : 2 304 kb/s<br>
Channel(s) : 2 channels<br>
Channel layout : L R<br>
Sampling rate : 48.0 kHz<br>
Bit depth : 24 bits<br>
Stream size : 68.3 MiB (1%)<br>
Language : English<br>
Encoded date : 2016-12-22 11:55:02 UTC<br>
Tagged date : 2016-12-22 11:59:43 UTC</div>
</div>
<div class="bbCodeBlock bbCodeVfcHH HiddenContent">
<div class="attribution type">Hidden Content:</div>
<blockquote>You must either reply or click 'Like' to see the hidden information contained here.</blockquote>
</div>
<div class="messageTextEndMarker">&nbsp;</div>
</blockquote>
</article>]]></description>
                <author><![CDATA[szymek04sawicki]]></author>
                </item>

                
                <item>
                <title><![CDATA[【Singles (lossy)】M4A - delete]]></title>
                <link><![CDATA[https://sharemania.us/threads/delete.233199/]]></link>
                <description><![CDATA[<article>
<blockquote class="messageText SelectQuoteContainer ugc baseHtml">
Finally, thank you so much!!
<div class="messageTextEndMarker">&nbsp;</div>
</blockquote>
</article>]]></description>
                <author><![CDATA[THAT70SSHSOWOSOW]]></author>
                </item>

                
                <item>
                <title><![CDATA[【Requests】[REQ AUD] - rochelle jordan - pressure]]></title>
                <link><![CDATA[https://sharemania.us/threads/rochelle-jordan-pressure.233206/]]></link>
                <description><![CDATA[<article>
<blockquote class="messageText SelectQuoteContainer ugc baseHtml">
delete
<div class="messageTextEndMarker">&nbsp;</div>
</blockquote>
</article>]]></description>
                <author><![CDATA[musiclover707]]></author>
                </item>

                </channel></rss>